<svg width="512" height="512" viewBox="0 0 512 512" fill="none" xmlns="http://www.w3.org/2000/svg">
<rect width="512" height="512" rx="256" fill="black"/>
<path fill-rule="evenodd" clip-rule="evenodd" d="M341.652 78.5701L338.429 82.6993C338.429 82.6993 338.389 110.201 338.429 119.485C338.442 122.39 338.747 134.012 329.722 138.444C320.607 142.92 315.69 146.066 313.22 149.852C310.62 153.84 308.15 155.53 308.112 164.141C308.072 172.972 308.14 175.37 308.112 179.02C308.078 183.274 302.987 183.51 302.987 183.51V187.829H312.573C312.573 187.829 312.62 176.167 312.573 170.773C312.529 165.723 313.555 156.853 329.787 149.903C340.848 145.166 341.802 141.488 341.652 127.719C341.645 127.05 341.652 78.5701 341.652 78.5701V78.5701Z" fill="white"/>
<path fill-rule="evenodd" clip-rule="evenodd" d="M350.442 128.644C350.442 127.974 350.445 118.303 350.445 118.303C350.445 118.303 352.776 135.272 361.801 139.703C370.915 144.179 376.039 146.288 378.887 149.8C381.57 153.109 383.996 153.545 384.024 163.864C384.048 172.695 384.013 175.164 384.042 178.813C384.076 183.068 389.12 183.457 389.12 183.457V187.776H379.534C379.534 187.776 379.487 176.115 379.534 170.72C379.578 165.67 379.546 157.026 362.087 150.417C349.566 145.677 350.424 141.492 350.442 128.644V128.644Z" fill="white"/>
<path fill-rule="evenodd" clip-rule="evenodd" d="M183.541 231.199C183.57 231.379 183.58 231.512 183.567 231.595C182.849 236.626 185.005 251.002 186.802 255.674C187.14 256.553 186.24 257.339 184.994 257.996C187.642 267.785 203.335 332.301 159.847 341.928C113.258 352.243 119.809 383.618 155.506 383.618C180.304 383.618 192.638 396.197 215.638 393.885C243.975 391.039 226.383 348.044 241.156 331.865C256.25 315.333 267.492 318.61 267.751 294.848C268.109 261.783 257.651 236.878 281.048 229.079C286.439 227.282 302.252 221.532 304.768 216.86C308.468 209.989 307.643 194.937 307.643 194.937H312.315C312.315 194.937 313.567 213.803 312.315 217.579C311.063 221.353 312.278 225.593 298.299 233.751C284.32 241.909 273.674 240.067 272.634 252.466C271.594 264.866 276.032 286.733 276.013 292.343C275.995 297.953 276.376 316.052 260.563 327.912C247.704 337.555 243.213 341.514 242.234 351.632C241.156 362.773 242.629 378.165 237.561 386.853C232.53 395.478 224.401 406.436 199.106 401.228C174.668 396.197 170.073 390.899 155.506 391.165C135.853 391.525 120.708 383.81 116.805 376.408C112.903 369.005 112.35 354.053 124.712 346.6C145.578 334.022 160.645 336.573 174.688 321.084C188.32 306.048 179.744 267.229 178.08 260.327C176.385 260.627 174.695 260.621 174.375 259.399C173.108 254.556 166.472 241.623 162.953 237.956C162.899 237.9 162.835 237.798 162.76 237.652C169.495 234.207 176.396 231.97 183.541 231.199ZM162.183 235.708C159.464 228.597 150.658 194.729 148.985 186.481C148.799 185.562 150.815 185.219 151.644 184.55C154.446 183.233 158.2 182.195 161.691 181.626C162.057 181.627 162.499 181.533 162.939 181.441C163.001 181.433 163.064 181.425 163.127 181.417L163.115 181.404C163.905 181.243 164.65 181.129 164.879 181.639C168.322 189.29 181.129 221.687 183.133 229.19C175.638 230.083 168.649 232.263 162.183 235.708ZM151.475 183.099C151.115 180.932 148.854 173.143 146.58 166.373C149.077 164.521 151.853 163.962 154.977 163.926C156.238 168.011 158.982 177.553 160.321 180.306C157.205 180.886 154.096 181.896 151.475 183.099ZM144.037 158.884C146.98 157.081 149.906 156.227 152.812 156.475L154.362 161.901C150.949 161.919 149.78 162.14 145.916 164.399C145.149 162.133 144.48 160.175 144.037 158.884ZM143.653 157.767C143.537 157.433 143.474 157.251 143.474 157.251L144.971 154.406L144.004 152.444L141.159 150.948L143.86 145.468L144.654 145.341H145.112L150.503 148.215L149.066 151.091L149.426 153.247L152.3 154.685L152.428 155.134C149.207 155.144 146.263 155.969 143.653 157.767Z" fill="white"/>
</svg>
