<svg xmlns="http://www.w3.org/2000/svg" width="138" height="68" fill="none" viewBox="0 0 138 68">
  <path fill="#fff" fill-rule="evenodd" d="m47.36 0-.671.86s-.009 5.73 0 7.664c.002.605.066 3.027-1.815 3.95-1.898.933-2.923 1.588-3.438 2.377-.541.83-1.056 1.183-1.064 2.977-.008 1.84.006 2.34 0 3.1-.007.886-1.068.935-1.068.935v.9h1.998s.01-2.43 0-3.553c-.01-1.052.204-2.9 3.586-4.349 2.305-.986 2.503-1.753 2.472-4.621V0Zm1.831 10.432V8.278s.487 3.535 2.367 4.459c1.899.932 2.966 1.371 3.56 2.103.559.69 1.064.78 1.07 2.93.005 1.84-.002 2.355.004 3.115.007.886 1.058.967 1.058.967v.9h-1.998s-.01-2.43 0-3.553c.01-1.052.003-2.853-3.635-4.23-2.608-.988-2.43-1.86-2.426-4.537ZM14.419 31.799a.305.305 0 0 1 .005.082c-.15 1.049.3 4.044.674 5.017.07.183-.117.347-.376.484.552 2.04 3.821 15.48-5.24 17.486-9.706 2.15-8.34 8.686-.904 8.686 5.167 0 7.736 2.62 12.528 2.14 5.904-.594 2.239-9.551 5.316-12.922 3.145-3.444 5.487-2.762 5.541-7.712.075-6.89-2.104-12.078 2.77-13.703 1.124-.374 4.418-1.572 4.943-2.546.77-1.431.599-4.567.599-4.567h.973s.26 3.93 0 4.717c-.26.787-.008 1.67-2.92 3.37-2.913 1.7-5.13 1.315-5.347 3.899-.217 2.583.708 7.139.704 8.308-.004 1.169.075 4.94-3.22 7.41-2.678 2.01-3.614 2.834-3.818 4.942-.224 2.321.083 5.528-.973 7.338-1.049 1.797-2.742 4.08-8.012 2.995-5.092-1.048-6.049-2.152-9.084-2.097-4.094.075-7.25-1.532-8.063-3.074-.813-1.542-.928-4.657 1.648-6.21 4.347-2.62 7.486-2.09 10.412-5.316 2.84-3.133 1.053-11.22.706-12.659-.353.063-.705.062-.772-.193-.264-1.009-1.646-3.703-2.38-4.467a.29.29 0 0 1-.04-.064c1.404-.717 2.841-1.184 4.33-1.344Zm-4.45.94c-.566-1.482-2.4-8.538-2.75-10.257-.038-.191.382-.263.554-.402.584-.274 1.366-.49 2.094-.61.076.001.168-.019.26-.038l.039-.005-.003-.002c.165-.034.32-.058.368.049.717 1.594 3.385 8.343 3.803 9.906-1.561.187-3.018.64-4.365 1.358ZM7.74 21.777c-.076-.452-.547-2.075-1.02-3.485.52-.386 1.098-.502 1.749-.51.263.851.834 2.84 1.113 3.413a8.07 8.07 0 0 0-1.843.582Zm-1.55-5.045c.613-.376 1.222-.554 1.828-.502l.323 1.13c-.711.004-.955.05-1.76.52l-.391-1.148Zm-.08-.233-.038-.108.312-.592-.201-.409-.593-.312.563-1.141.165-.027h.096l1.123.599-.3.599.075.45.6.299.026.093c-.671.002-1.285.174-1.828.55Z" clip-rule="evenodd"/>
  <path fill="#fff" d="M52.236 45.62a.555.555 0 0 1-.374-.132.555.555 0 0 1-.132-.374V32.178h-4.224a.555.555 0 0 1-.374-.132.555.555 0 0 1-.132-.374v-.924c0-.161.044-.286.132-.374a.51.51 0 0 1 .374-.154H58.11c.161 0 .286.051.374.154a.466.466 0 0 1 .154.374v.924a.51.51 0 0 1-.154.374c-.088.088-.213.132-.374.132h-4.202v12.936a.51.51 0 0 1-.154.374c-.088.088-.213.132-.374.132h-1.144Zm9.374 0c-.161 0-.286-.044-.374-.132a.555.555 0 0 1-.132-.374V30.748c0-.161.044-.286.132-.374a.466.466 0 0 1 .374-.154h9.086c.162 0 .286.051.374.154.088.088.132.213.132.374v.836c0 .161-.044.286-.132.374-.088.088-.212.132-.374.132h-7.48v4.818h6.996c.162 0 .286.051.374.154.088.088.132.213.132.374v.814a.555.555 0 0 1-.132.374c-.088.088-.212.132-.374.132h-6.996v4.994h7.656c.162 0 .286.044.374.132.088.088.132.213.132.374v.858a.555.555 0 0 1-.132.374c-.088.088-.212.132-.374.132H61.61Zm18.23.22c-1.35 0-2.472-.25-3.366-.748a4.914 4.914 0 0 1-2.002-2.09c-.455-.895-.704-1.936-.748-3.124a85.662 85.662 0 0 1 0-3.916c.044-1.188.293-2.23.748-3.124a4.914 4.914 0 0 1 2.002-2.09c.894-.499 2.016-.748 3.366-.748 1.012 0 1.899.14 2.662.418.762.279 1.393.653 1.892 1.122.513.47.902.997 1.166 1.584.264.572.41 1.166.44 1.782a.36.36 0 0 1-.132.33.448.448 0 0 1-.33.132h-1.21a.59.59 0 0 1-.352-.11c-.088-.073-.154-.205-.198-.396-.25-1.144-.719-1.929-1.408-2.354-.675-.425-1.526-.638-2.552-.638-1.174 0-2.105.337-2.794 1.012-.69.66-1.064 1.723-1.122 3.19a51.753 51.753 0 0 0 0 3.696c.058 1.467.432 2.537 1.122 3.212.689.66 1.62.99 2.794.99 1.026 0 1.877-.213 2.552-.638.689-.425 1.158-1.21 1.408-2.354.044-.19.11-.323.198-.396a.59.59 0 0 1 .352-.11h1.21c.132 0 .242.044.33.132a.36.36 0 0 1 .132.33 4.935 4.935 0 0 1-.44 1.804 4.893 4.893 0 0 1-1.166 1.562c-.499.47-1.13.843-1.892 1.122-.763.279-1.65.418-2.662.418Zm9.614-.22c-.161 0-.286-.044-.374-.132a.555.555 0 0 1-.132-.374V30.748c0-.161.044-.286.132-.374a.466.466 0 0 1 .374-.154h1.122c.161 0 .286.051.374.154a.466.466 0 0 1 .154.374v6.072h7.568v-6.072c0-.161.044-.286.132-.374a.51.51 0 0 1 .374-.154h1.122c.161 0 .286.051.374.154a.465.465 0 0 1 .154.374v14.366a.508.508 0 0 1-.154.374c-.088.088-.213.132-.374.132h-1.122a.555.555 0 0 1-.374-.132.555.555 0 0 1-.132-.374V38.8h-7.568v6.314a.51.51 0 0 1-.154.374c-.088.088-.213.132-.374.132h-1.122Zm15.684 0c-.162 0-.286-.044-.374-.132a.555.555 0 0 1-.132-.374V30.748c0-.161.044-.286.132-.374a.465.465 0 0 1 .374-.154h1.012c.176 0 .308.044.396.132a.49.49 0 0 1 .154.176l7.304 11.22v-11c0-.161.044-.286.132-.374a.465.465 0 0 1 .374-.154h1.056c.161 0 .286.051.374.154a.468.468 0 0 1 .154.374v14.344a.512.512 0 0 1-.154.374.441.441 0 0 1-.352.154h-1.056c-.162 0-.286-.044-.374-.132a3.595 3.595 0 0 0-.154-.176l-7.282-11.11v10.912a.512.512 0 0 1-.154.374c-.088.088-.213.132-.374.132h-1.056Zm15.275 0c-.161 0-.286-.044-.374-.132a.555.555 0 0 1-.132-.374V30.726c0-.147.044-.264.132-.352a.466.466 0 0 1 .374-.154h1.166a.44.44 0 0 1 .352.154.44.44 0 0 1 .154.352v14.388a.508.508 0 0 1-.154.374.475.475 0 0 1-.352.132h-1.166Zm6.016 0c-.162 0-.286-.044-.374-.132a.555.555 0 0 1-.132-.374V30.748c0-.161.044-.286.132-.374a.465.465 0 0 1 .374-.154h1.1c.161 0 .286.051.374.154a.468.468 0 0 1 .154.374v5.456l5.874-5.632c.058-.059.154-.132.286-.22.146-.088.337-.132.572-.132h1.188c.117 0 .22.044.308.132.088.088.132.19.132.308 0 .117-.03.213-.088.286l-6.798 6.644 7.238 7.282c.073.088.11.19.11.308 0 .117-.044.22-.132.308a.423.423 0 0 1-.308.132h-1.232c-.25 0-.44-.044-.572-.132a29.626 29.626 0 0 0-.286-.22l-6.292-6.204v6.05a.512.512 0 0 1-.154.374c-.088.088-.213.132-.374.132h-1.1ZM53.908 67.84c-1.35 0-2.471-.25-3.366-.748a4.914 4.914 0 0 1-2.002-2.09c-.455-.895-.704-1.936-.748-3.124a85.104 85.104 0 0 1 0-3.916c.044-1.188.293-2.23.748-3.124a4.914 4.914 0 0 1 2.002-2.09c.895-.499 2.017-.748 3.366-.748 1.012 0 1.9.14 2.662.418.763.279 1.393.653 1.892 1.122.513.47.902.997 1.166 1.584.264.572.41 1.166.44 1.782a.36.36 0 0 1-.132.33.448.448 0 0 1-.33.132h-1.21a.59.59 0 0 1-.352-.11c-.088-.073-.154-.205-.198-.396-.25-1.144-.719-1.929-1.408-2.354-.675-.425-1.525-.638-2.552-.638-1.173 0-2.105.337-2.794 1.012-.69.66-1.063 1.723-1.122 3.19a51.753 51.753 0 0 0 0 3.696c.059 1.467.433 2.537 1.122 3.212.69.66 1.62.99 2.794.99 1.027 0 1.877-.213 2.552-.638.69-.425 1.159-1.21 1.408-2.354.044-.19.11-.323.198-.396a.59.59 0 0 1 .352-.11h1.21c.132 0 .242.044.33.132a.36.36 0 0 1 .132.33 4.935 4.935 0 0 1-.44 1.804 4.894 4.894 0 0 1-1.166 1.562c-.499.47-1.13.843-1.892 1.122-.763.279-1.65.418-2.662.418Zm9.614-.22c-.161 0-.286-.044-.374-.132a.555.555 0 0 1-.132-.374V52.748c0-.161.044-.286.132-.374a.466.466 0 0 1 .374-.154H85.56c1.657 0 2.97.389 3.938 1.166.968.777 1.452 1.929 1.452 3.454 0 1.13-.286 2.053-.858 2.772-.558.704-1.32 1.195-2.288 1.474l3.388 5.852a.548.548 0 0 1 .066.242c0 .117-.052.22-.154.308a.422.422 0 0 1-.308.132H89.74c-.25 0-.433-.066-.55-.198a3.63 3.63 0 0 1-.308-.396l-3.19-5.588h-20.52v5.676a.51.51 0 0 1-.154.374c-.088.088-.212.132-.374.132h-1.122Zm1.65-8.052h20.3c1.1 0 1.921-.227 2.464-.682.542-.47.814-1.159.814-2.068 0-.895-.272-1.577-.814-2.046-.528-.47-1.35-.704-2.464-.704h-20.3v5.5Zm29.436 8.052c-.162 0-.286-.044-.374-.132a.555.555 0 0 1-.132-.374V52.748c0-.161.044-.286.132-.374a.466.466 0 0 1 .374-.154h24.231c.161 0 .286.051.374.154.088.088.132.213.132.374v.836c0 .161-.044.286-.132.374-.088.088-.213.132-.374.132H96.214v4.818h22.141c.161 0 .286.051.374.154.088.088.132.213.132.374v.814a.555.555 0 0 1-.132.374c-.088.088-.213.132-.374.132H96.214v4.994h22.801c.161 0 .286.044.374.132.088.088.132.213.132.374v.858a.555.555 0 0 1-.132.374c-.088.088-.213.132-.374.132H94.608Zm30.576 0a.678.678 0 0 1-.462-.154.896.896 0 0 1-.22-.44l-2.838-14.124a.683.683 0 0 1-.022-.154v-.088c0-.117.044-.22.132-.308a.423.423 0 0 1 .308-.132h1.144c.308 0 .484.125.528.374l2.244 11.352 2.376-7.788a.9.9 0 0 1 .22-.352c.118-.117.279-.176.484-.176h.814c.22 0 .382.059.484.176.103.103.169.22.198.352l2.398 7.788 2.222-11.352c.044-.25.228-.374.55-.374h1.144c.118 0 .22.044.308.132.088.088.132.19.132.308a.344.344 0 0 1-.022.088v.154l-2.838 14.124a.801.801 0 0 1-.242.44c-.102.103-.249.154-.44.154h-.858c-.205 0-.366-.051-.484-.154a.79.79 0 0 1-.242-.396l-2.728-8.382-2.706 8.382a.93.93 0 0 1-.264.396c-.102.103-.256.154-.462.154h-.858Z"/>
</svg>
